<svg width="512" height="512" viewBox="0 0 512 512" fill="none" xmlns="http://www.w3.org/2000/svg">
<g clip-path="url(#clip0_638_22)">
<path d="M448.634 319.956L138.653 512H53.295V405.299H138.653V362.627H223.995V319.956H309.345V277.285H394.688V234.614H501.374V319.956H448.634Z" fill="#FFD2A6"/>
<path d="M448.03 255.941C442.155 255.941 437.374 251.16 437.374 245.269V21.2269C437.374 15.3369 442.155 10.5709 448.03 10.5709C453.936 10.5709 458.718 15.3369 458.718 21.2269V245.27C458.718 251.16 453.937 255.941 448.03 255.941Z" fill="#434A54"/>
<path d="M362.688 298.613C356.813 298.613 352.032 293.847 352.032 287.957V63.9139C352.032 58.0079 356.813 53.2429 362.688 53.2429C368.594 53.2429 373.376 58.0089 373.376 63.9139V287.957C373.376 293.848 368.595 298.613 362.688 298.613Z" fill="#434A54"/>
<path d="M277.347 341.3C271.449 341.3 266.683 336.519 266.683 330.628V106.585C266.683 100.694 271.449 95.9128 277.347 95.9128C283.253 95.9128 288.002 100.694 288.002 106.585V330.628C288.002 336.519 283.253 341.3 277.347 341.3Z" fill="#434A54"/>
<path d="M191.996 383.971C186.105 383.971 181.324 379.19 181.324 373.299V149.256C181.324 143.365 186.105 138.584 191.996 138.584C197.887 138.584 202.667 143.365 202.667 149.256V373.299C202.667 379.189 197.887 383.971 191.996 383.971Z" fill="#434A54"/>
<path d="M106.638 426.642C100.747 426.642 95.982 421.862 95.982 415.971V191.927C95.982 186.037 100.748 181.271 106.638 181.271C112.544 181.271 117.309 186.037 117.309 191.927V415.971C117.31 421.861 112.544 426.642 106.638 426.642Z" fill="#434A54"/>
<path d="M61.279 289.41C51.623 289.41 39.248 287.457 28.983 279.504C16.796 270.066 10.624 254.957 10.624 234.614C10.624 230.567 12.905 226.864 16.53 225.068L464.405 1.13298C469.655 -1.50702 476.061 0.632984 478.717 5.89898C481.342 11.165 479.217 17.586 473.936 20.211L32.249 241.051C33.202 251.035 36.452 258.269 41.983 262.582C53.342 271.457 71.826 266.988 72.014 266.941C77.717 265.457 83.514 268.894 84.998 274.613C86.466 280.316 83.014 286.144 77.31 287.613C76.748 287.754 70.154 289.41 61.279 289.41Z" fill="#656D78"/>
<path d="M138.653 426.642H53.295C47.404 426.642 42.639 421.862 42.639 415.971C42.639 410.08 47.405 405.299 53.295 405.299H138.653V426.642Z" fill="#965353"/>
<path d="M223.996 383.971H138.654C132.763 383.971 127.982 379.19 127.982 373.299C127.982 367.408 132.763 362.627 138.654 362.627H223.996V383.971Z" fill="#965353"/>
<path d="M309.346 341.3H223.996C218.105 341.3 213.34 336.519 213.34 330.628C213.34 324.737 218.106 319.956 223.996 319.956H309.346V341.3Z" fill="#965353"/>
<path d="M394.688 298.613H309.345C303.47 298.613 298.689 293.847 298.689 287.957C298.689 282.051 303.47 277.285 309.345 277.285H394.688V298.613Z" fill="#965353"/>
<path d="M501.374 255.941H394.688C388.813 255.941 384.032 251.16 384.032 245.269C384.032 239.379 388.813 234.613 394.688 234.613H501.374V255.941Z" fill="#965353"/>
</g>
<defs>
<clipPath id="clip0_638_22">
<rect width="511.998" height="511.998" fill="white" transform="translate(0 0.00195312)"/>
</clipPath>
</defs>
</svg>
